<svg width="544" height="152" viewBox="0 0 544 152" fill="none" xmlns="http://www.w3.org/2000/svg">
<path d="M75.5454 61.5539C75.5454 80.0562 63.3219 89.3073 38.8748 89.3073C23.8459 89.3073 11.9897 86.0678 3.30636 79.5886L16.0309 60.4518C22.844 66.4634 30.1581 69.4691 37.9731 69.4691C39.7098 69.4691 41.3797 69.1018 42.9827 68.367C45.0534 67.4319 46.0887 66.2296 46.0887 64.7601C46.0887 62.7562 42.7824 60.9194 36.1696 59.2495C26.6847 56.8448 20.4727 54.8744 17.5338 53.3381C10.921 49.8647 7.61466 44.8551 7.61466 38.3092C7.61466 19.8737 19.0032 10.6559 41.7804 10.6559C52.4677 10.6559 62.9545 12.9938 73.241 17.6694L61.2178 36.3053C54.7387 32.3644 49.2281 30.3939 44.686 30.3939C40.1439 30.3939 37.8729 31.496 37.8729 33.7003C37.8729 35.5038 41.1125 37.2404 47.5916 38.9103C56.4086 41.1814 62.4536 43.2854 65.7265 45.2225C72.2724 49.0966 75.5454 54.5404 75.5454 61.5539ZM158.917 85.3998C152.371 88.1384 144.689 89.5077 135.872 89.5077C122.714 89.5077 111.258 86.3015 101.506 79.8892C90.2847 72.4749 84.6739 62.5224 84.6739 50.0317C84.6739 37.6078 90.3181 27.6553 101.607 20.1743C111.425 13.6951 122.847 10.4555 135.872 10.4555C143.955 10.4555 151.636 11.8916 158.917 14.7638V44.9219C152.371 36.9733 144.689 32.9989 135.872 32.9989C130.328 32.9989 125.553 34.435 121.545 37.3072C117.003 40.5134 114.732 44.7549 114.732 50.0317C114.732 55.5089 116.969 59.8506 121.445 63.0568C125.386 65.929 130.195 67.3651 135.872 67.3651C143.888 67.3651 151.569 63.7248 158.917 56.4441V85.3998ZM249.032 87.0029H213.264L195.73 65.762V87.0029H167.576V12.8602H204.146C213.03 12.8602 220.511 14.5635 226.589 17.97C234.137 22.1781 237.911 28.3901 237.911 36.6059C237.911 46.7588 231.933 53.7055 219.977 57.446L249.032 87.0029ZM208.154 37.5076C208.154 35.3702 207.018 33.7671 204.747 32.6984C202.944 31.83 200.873 31.3959 198.535 31.3959H196.632C196.498 31.3959 196.364 31.4293 196.231 31.496H195.73V43.92C195.863 43.92 195.964 43.9534 196.03 44.0202H198.535C201.007 44.0202 203.111 43.5526 204.847 42.6175C207.052 41.4819 208.154 39.7787 208.154 37.5076ZM312.07 87.1031H255.662V12.9604H312.07V32.9989H284.417V40.313H310.367V60.3516L284.417 60.2514V67.5655H312.07V87.1031ZM420.542 87.0029H389.181L383.17 74.6792H356.118L349.805 87.0029H319.146L355.516 12.8602H384.572L420.542 87.0029ZM375.154 56.5443L369.844 43.8198L364.333 56.5443H375.154Z" fill="white"/>
<path fill-rule="evenodd" clip-rule="evenodd" d="M442.638 12.7124L442.605 12.7124L426.574 87.0555H454.828L461.3 51.529L442.638 12.7124ZM484.684 100.168C484.856 100.553 485.024 100.925 485.187 101.283L485.203 101.248L484.684 100.168ZM509.261 51.4536L515.746 87.0555H544L527.888 12.7999L509.261 51.4536ZM444.688 12.7124H469.557L485.187 45.2751L501.017 12.7124H525.879L485.236 97.0519L444.688 12.7124Z" fill="white"/>
<path fill-rule="evenodd" clip-rule="evenodd" d="M442.638 12.7124L442.605 12.7124L443.285 14.0581L442.638 12.7124ZM484.686 100.172C484.858 100.556 485.025 100.926 485.187 101.283L485.203 101.248L484.686 100.172ZM509.261 51.4534L515.746 87.0555H544L527.888 12.7997L509.261 51.4534ZM444.688 12.7124H469.557L485.187 45.2751L501.017 12.7124H525.879L485.236 97.0519L444.688 12.7124Z" fill="#FF0000"/>
<path d="M8.544 143.484L0.736 143.5V142.3L4.464 139.084C4.93333 138.689 5.32267 138.332 5.632 138.012C5.94133 137.692 6.18667 137.399 6.368 137.132C6.54933 136.855 6.67733 136.583 6.752 136.316C6.82667 136.049 6.864 135.761 6.864 135.452C6.864 134.727 6.66667 134.161 6.272 133.756C5.888 133.34 5.344 133.132 4.64 133.132C3.92533 133.132 3.34933 133.377 2.912 133.868C2.48533 134.348 2.26667 134.999 2.256 135.82H0.688C0.709333 134.999 0.885333 134.279 1.216 133.66C1.54667 133.041 2.00533 132.567 2.592 132.236C3.18933 131.895 3.87733 131.724 4.656 131.724C5.43467 131.724 6.10667 131.873 6.672 132.172C7.23733 132.471 7.67467 132.892 7.984 133.436C8.304 133.969 8.464 134.609 8.464 135.356C8.464 135.761 8.41067 136.151 8.304 136.524C8.19733 136.887 8.02667 137.249 7.792 137.612C7.568 137.964 7.27467 138.332 6.912 138.716C6.54933 139.089 6.112 139.5 5.6 139.948L2.576 142.572L2.048 142.028H8.544V143.484ZM9.98713 137.724C9.98713 136.529 10.1791 135.484 10.5631 134.588C10.9578 133.681 11.5125 132.977 12.2271 132.476C12.9418 131.964 13.7845 131.708 14.7551 131.708C15.7258 131.708 16.5631 131.964 17.2671 132.476C17.9818 132.977 18.5311 133.681 18.9151 134.588C19.3098 135.484 19.5071 136.529 19.5071 137.724C19.5071 138.929 19.3151 139.98 18.9311 140.876C18.5578 141.772 18.0138 142.471 17.2991 142.972C16.5951 143.463 15.7471 143.708 14.7551 143.708C13.7631 143.708 12.9098 143.463 12.1951 142.972C11.4805 142.471 10.9311 141.772 10.5471 140.876C10.1738 139.98 9.98713 138.929 9.98713 137.724ZM11.5391 137.724C11.5391 138.673 11.6671 139.495 11.9231 140.188C12.1791 140.871 12.5418 141.393 13.0111 141.756C13.4911 142.119 14.0725 142.3 14.7551 142.3C15.4271 142.3 16.0031 142.119 16.4831 141.756C16.9631 141.393 17.3258 140.871 17.5711 140.188C17.8271 139.495 17.9551 138.673 17.9551 137.724C17.9551 136.764 17.8271 135.943 17.5711 135.26C17.3258 134.567 16.9631 134.039 16.4831 133.676C16.0031 133.303 15.4271 133.116 14.7551 133.116C14.0725 133.116 13.4911 133.303 13.0111 133.676C12.5418 134.039 12.1791 134.567 11.9231 135.26C11.6671 135.943 11.5391 136.764 11.5391 137.724ZM28.8409 143.484L21.0329 143.5V142.3L24.7609 139.084C25.2302 138.689 25.6195 138.332 25.9289 138.012C26.2382 137.692 26.4835 137.399 26.6649 137.132C26.8462 136.855 26.9742 136.583 27.0489 136.316C27.1235 136.049 27.1609 135.761 27.1609 135.452C27.1609 134.727 26.9635 134.161 26.5689 133.756C26.1849 133.34 25.6409 133.132 24.9369 133.132C24.2222 133.132 23.6462 133.377 23.2089 133.868C22.7822 134.348 22.5635 134.999 22.5529 135.82H20.9849C21.0062 134.999 21.1822 134.279 21.5129 133.66C21.8435 133.041 22.3022 132.567 22.8889 132.236C23.4862 131.895 24.1742 131.724 24.9529 131.724C25.7315 131.724 26.4035 131.873 26.9689 132.172C27.5342 132.471 27.9715 132.892 28.2809 133.436C28.6009 133.969 28.7609 134.609 28.7609 135.356C28.7609 135.761 28.7075 136.151 28.6009 136.524C28.4942 136.887 28.3235 137.249 28.0889 137.612C27.8649 137.964 27.5715 138.332 27.2089 138.716C26.8462 139.089 26.4089 139.5 25.8969 139.948L22.8729 142.572L22.3449 142.028H28.8409V143.484ZM37.7705 133.196L33.5305 137.244L32.5065 136.476L36.6025 132.54L36.5225 133.324H30.5865V131.932H37.7705V133.196ZM33.6585 137.516H32.5065V136.476C32.6878 136.359 32.9118 136.284 33.1785 136.252C33.4558 136.209 33.7225 136.188 33.9785 136.188C34.5438 136.188 35.0718 136.273 35.5625 136.444C36.0532 136.604 36.4852 136.844 36.8585 137.164C37.2425 137.484 37.5358 137.873 37.7385 138.332C37.9518 138.78 38.0585 139.292 38.0585 139.868C38.0585 140.647 37.8772 141.324 37.5145 141.9C37.1625 142.476 36.6718 142.919 36.0425 143.228C35.4238 143.537 34.7252 143.692 33.9465 143.692C33.1892 143.692 32.5172 143.543 31.9305 143.244C31.3438 142.945 30.8798 142.513 30.5385 141.948C30.2078 141.372 30.0425 140.689 30.0425 139.9H31.5945C31.5945 140.647 31.8078 141.233 32.2345 141.66C32.6718 142.076 33.2532 142.284 33.9785 142.284C34.7252 142.284 35.3225 142.06 35.7705 141.612C36.2292 141.164 36.4585 140.572 36.4585 139.836C36.4585 139.143 36.2238 138.583 35.7545 138.156C35.2852 137.729 34.5865 137.516 33.6585 137.516Z" fill="white" fill-opacity="0.5"/>
<circle cx="48" cy="137.5" r="1" fill="white" fill-opacity="0.5"/>
<path d="M65.544 143.484L57.736 143.5V142.3L61.464 139.084C61.9333 138.689 62.3227 138.332 62.632 138.012C62.9413 137.692 63.1867 137.399 63.368 137.132C63.5493 136.855 63.6773 136.583 63.752 136.316C63.8267 136.049 63.864 135.761 63.864 135.452C63.864 134.727 63.6667 134.161 63.272 133.756C62.888 133.34 62.344 133.132 61.64 133.132C60.9253 133.132 60.3493 133.377 59.912 133.868C59.4853 134.348 59.2667 134.999 59.256 135.82H57.688C57.7093 134.999 57.8853 134.279 58.216 133.66C58.5467 133.041 59.0053 132.567 59.592 132.236C60.1893 131.895 60.8773 131.724 61.656 131.724C62.4347 131.724 63.1067 131.873 63.672 132.172C64.2373 132.471 64.6747 132.892 64.984 133.436C65.304 133.969 65.464 134.609 65.464 135.356C65.464 135.761 65.4107 136.151 65.304 136.524C65.1973 136.887 65.0267 137.249 64.792 137.612C64.568 137.964 64.2747 138.332 63.912 138.716C63.5493 139.089 63.112 139.5 62.6 139.948L59.576 142.572L59.048 142.028H65.544V143.484ZM68.7951 143.484H67.2911V131.724H68.7951V136.876C69.0405 136.449 69.3925 136.108 69.8511 135.852C70.3098 135.585 70.8431 135.452 71.4511 135.452C72.4431 135.452 73.1845 135.745 73.6751 136.332C74.1658 136.919 74.4111 137.713 74.4111 138.716V143.5H72.9071V139.052C72.9071 138.519 72.8271 138.092 72.6671 137.772C72.5178 137.441 72.2991 137.201 72.0111 137.052C71.7338 136.903 71.4085 136.828 71.0351 136.828C70.5551 136.828 70.1445 136.935 69.8031 137.148C69.4725 137.361 69.2218 137.649 69.0511 138.012C68.8805 138.375 68.7951 138.78 68.7951 139.228V143.484ZM88.3253 143.484L80.5173 143.5V142.3L84.2453 139.084C84.7146 138.689 85.1039 138.332 85.4133 138.012C85.7226 137.692 85.9679 137.399 86.1493 137.132C86.3306 136.855 86.4586 136.583 86.5333 136.316C86.6079 136.049 86.6453 135.761 86.6453 135.452C86.6453 134.727 86.4479 134.161 86.0533 133.756C85.6693 133.34 85.1253 133.132 84.4213 133.132C83.7066 133.132 83.1306 133.377 82.6933 133.868C82.2666 134.348 82.0479 134.999 82.0373 135.82H80.4693C80.4906 134.999 80.6666 134.279 80.9973 133.66C81.3279 133.041 81.7866 132.567 82.3733 132.236C82.9706 131.895 83.6586 131.724 84.4373 131.724C85.2159 131.724 85.8879 131.873 86.4533 132.172C87.0186 132.471 87.4559 132.892 87.7653 133.436C88.0853 133.969 88.2453 134.609 88.2453 135.356C88.2453 135.761 88.1919 136.151 88.0853 136.524C87.9786 136.887 87.8079 137.249 87.5733 137.612C87.3493 137.964 87.0559 138.332 86.6933 138.716C86.3306 139.089 85.8933 139.5 85.3813 139.948L82.3573 142.572L81.8293 142.028H88.3253V143.484ZM91.5764 143.5H90.0724V135.676H91.4164L91.6244 137.116L91.4324 136.988C91.5924 136.551 91.8857 136.188 92.3124 135.9C92.7497 135.601 93.2777 135.452 93.8964 135.452C94.5897 135.452 95.1657 135.639 95.6244 136.012C96.083 136.385 96.3817 136.881 96.5204 137.5H96.2484C96.355 136.881 96.6484 136.385 97.1284 136.012C97.6084 135.639 98.2004 135.452 98.9044 135.452C99.8004 135.452 100.504 135.713 101.016 136.236C101.528 136.759 101.784 137.473 101.784 138.38V143.5H100.312V138.748C100.312 138.129 100.152 137.655 99.8324 137.324C99.523 136.983 99.1017 136.812 98.5684 136.812C98.195 136.812 97.8644 136.897 97.5764 137.068C97.299 137.228 97.0804 137.463 96.9204 137.772C96.7604 138.081 96.6804 138.444 96.6804 138.86V143.5H95.1924V138.732C95.1924 138.113 95.0377 137.644 94.7284 137.324C94.419 136.993 93.9977 136.828 93.4644 136.828C93.091 136.828 92.7604 136.913 92.4724 137.084C92.195 137.244 91.9764 137.479 91.8164 137.788C91.6564 138.087 91.5764 138.444 91.5764 138.86V143.5Z" fill="white" fill-opacity="0.5"/>
<circle cx="112" cy="137.5" r="1" fill="white" fill-opacity="0.5"/>
<path d="M123.992 133.34H121.56V131.932H125.496V143.5H123.992V133.34ZM127.222 131.932H135.302V133.372H127.222V131.932ZM134.086 132.54L135.302 133.372L130.918 143.5H129.286L134.086 132.54ZM141.326 134.108V142.124H140.046V134.108H141.326ZM136.686 137.468H144.686V138.748H136.686V137.468Z" fill="white" fill-opacity="0.5"/>
<circle cx="155" cy="137.5" r="1" fill="white" fill-opacity="0.5"/>
<path d="M170.144 143.676C169.045 143.676 168.085 143.431 167.264 142.94C166.443 142.439 165.803 141.745 165.344 140.86C164.885 139.964 164.656 138.919 164.656 137.724C164.656 136.529 164.891 135.484 165.36 134.588C165.829 133.692 166.48 132.993 167.312 132.492C168.155 131.991 169.125 131.74 170.224 131.74C171.099 131.74 171.888 131.905 172.592 132.236C173.296 132.556 173.883 133.009 174.352 133.596C174.821 134.183 175.125 134.871 175.264 135.66H173.584C173.371 134.903 172.96 134.311 172.352 133.884C171.744 133.457 171.019 133.244 170.176 133.244C169.397 133.244 168.715 133.431 168.128 133.804C167.552 134.167 167.104 134.684 166.784 135.356C166.464 136.017 166.304 136.801 166.304 137.708C166.304 138.604 166.464 139.388 166.784 140.06C167.104 140.732 167.557 141.255 168.144 141.628C168.731 141.991 169.408 142.172 170.176 142.172C171.029 142.172 171.765 141.964 172.384 141.548C173.013 141.121 173.435 140.551 173.648 139.836H175.312C175.152 140.604 174.827 141.276 174.336 141.852C173.856 142.428 173.253 142.876 172.528 143.196C171.813 143.516 171.019 143.676 170.144 143.676ZM182.035 143.676C180.936 143.676 179.976 143.431 179.155 142.94C178.333 142.439 177.693 141.745 177.235 140.86C176.776 139.964 176.547 138.919 176.547 137.724C176.547 136.529 176.781 135.484 177.251 134.588C177.72 133.692 178.371 132.993 179.203 132.492C180.045 131.991 181.016 131.74 182.115 131.74C182.989 131.74 183.779 131.905 184.483 132.236C185.187 132.556 185.773 133.009 186.243 133.596C186.712 134.183 187.016 134.871 187.155 135.66H185.475C185.261 134.903 184.851 134.311 184.243 133.884C183.635 133.457 182.909 133.244 182.067 133.244C181.288 133.244 180.605 133.431 180.019 133.804C179.443 134.167 178.995 134.684 178.675 135.356C178.355 136.017 178.195 136.801 178.195 137.708C178.195 138.604 178.355 139.388 178.675 140.06C178.995 140.732 179.448 141.255 180.035 141.628C180.621 141.991 181.299 142.172 182.067 142.172C182.92 142.172 183.656 141.964 184.275 141.548C184.904 141.121 185.325 140.551 185.539 139.836H187.203C187.043 140.604 186.717 141.276 186.227 141.852C185.747 142.428 185.144 142.876 184.419 143.196C183.704 143.516 182.909 143.676 182.035 143.676Z" fill="white" fill-opacity="0.5"/>
<circle cx="197" cy="137.5" r="1" fill="white" fill-opacity="0.5"/>
<path d="M214.032 131.932V143.5H212.528V131.932H214.032ZM206.544 139.772L212 131.932H213.68L208.176 139.868L206.544 139.772ZM215.408 141.164H206.544V139.772H215.408V141.164ZM226.108 131.932L218.764 141.244V138.892L224.236 131.932H226.108ZM219.084 131.932V143.5H217.516V131.932H219.084ZM221.116 138.044L222.14 136.7L226.172 143.5H224.348L221.116 138.044Z" fill="white" fill-opacity="0.5"/>
</svg>
