<svg width="7" height="8" viewBox="0 0 7 8" fill="none" xmlns="http://www.w3.org/2000/svg">
<path fill-rule="evenodd" clip-rule="evenodd" d="M4.01834 0.406956C3.99615 0.245797 3.85596 0.121582 3.68632 0.121582C3.50127 0.121582 3.35125 0.269408 3.35125 0.45176V6.25591L1.23168 4.1589L1.19417 4.12686C1.06319 4.03068 0.877017 4.04096 0.757812 4.15794C0.626686 4.28661 0.626247 4.49567 0.756831 4.62488L3.44861 7.28831L3.45097 7.29033C3.46132 7.30039 3.47233 7.3098 3.48394 7.31848L3.48623 7.32044C3.54835 7.36601 3.62286 7.38764 3.69674 7.38533C3.78953 7.38254 3.87283 7.34257 3.93181 7.28004L6.6148 4.62486L6.64716 4.58776C6.74421 4.45829 6.733 4.27488 6.61378 4.15792C6.48265 4.02925 6.27049 4.0297 6.13991 4.15892L4.0214 6.2555V0.45176L4.01834 0.406956Z" fill="white"/>
</svg>
