<svg width="8" height="6" viewBox="0 0 8 6" fill="none" xmlns="http://www.w3.org/2000/svg">
<path d="M3.96538 4.89347C3.80779 5.05106 3.5523 5.05107 3.3947 4.8935L1.96763 3.46672C1.81012 3.30924 1.81001 3.05391 1.9674 2.8963C2.12493 2.73855 2.38055 2.73846 2.53819 2.8961L3.53737 3.89528C3.61617 3.97408 3.74393 3.97407 3.82273 3.89527L6.81887 0.89877C6.97644 0.741187 7.23192 0.741179 7.38949 0.898754C7.54706 1.05632 7.54706 1.31179 7.38949 1.46936L3.96538 4.89347ZM2.25308 4.8935C2.09551 5.05107 1.84005 5.05109 1.68246 4.89353L0.255569 3.46692C0.0979606 3.30935 0.0979021 3.05385 0.255438 2.8962C0.413042 2.73849 0.668673 2.73844 0.826332 2.8961L2.25308 4.32285C2.41066 4.48043 2.41066 4.73592 2.25308 4.8935ZM3.82268 3.32431C3.7439 3.40309 3.61618 3.40311 3.53738 3.32436L3.25181 3.039C3.17296 2.96021 3.17294 2.83241 3.25176 2.75359L5.39191 0.613435C5.5495 0.455846 5.80499 0.455801 5.96263 0.613334C6.12036 0.770946 6.1204 1.02659 5.96273 1.18426L3.82268 3.32431Z" fill="white"/>
</svg>
