<svg width="6" height="7" viewBox="0 0 6 7" fill="none" xmlns="http://www.w3.org/2000/svg">
<path d="M3.2953 4.15711V6.17487C3.2953 6.39774 3.11462 6.57841 2.89175 6.57841C2.66887 6.57841 2.4882 6.39774 2.4882 6.17486V4.15711H0.470445C0.24757 4.15711 0.0668945 3.97644 0.0668945 3.75356C0.0668945 3.53069 0.24757 3.35001 0.470445 3.35001H2.4882V1.33226C2.4882 1.10939 2.66887 0.928711 2.89175 0.928711C3.11462 0.928711 3.2953 1.10939 3.2953 1.33226V3.35001H5.31305C5.53592 3.35001 5.7166 3.53069 5.7166 3.75356C5.7166 3.97644 5.53592 4.15711 5.31305 4.15711H3.2953Z" fill="white"/>
</svg>
