<svg width="11" height="11" viewBox="0 0 11 11" fill="none" xmlns="http://www.w3.org/2000/svg">
<path d="M9.05859 5.75355C9.05859 5.58391 8.93438 5.44372 8.77322 5.42153L8.72842 5.41847L2.12487 5.41847C1.94251 5.41847 1.79469 5.56849 1.79469 5.75355C1.79469 5.92318 1.9189 6.06338 2.08006 6.08556L2.12487 6.08862L8.72842 6.08862C8.91077 6.08862 9.05859 5.9386 9.05859 5.75355Z" fill="white"/>
<path d="M9.05859 3.34217C9.05859 3.17253 8.93438 3.03234 8.77322 3.01015L8.72842 3.00709L2.12487 3.00709C1.94251 3.00709 1.79469 3.15711 1.79469 3.34217C1.79469 3.51181 1.9189 3.652 2.08006 3.67419L2.12487 3.67725L8.72842 3.67725C8.91077 3.67725 9.05859 3.52723 9.05859 3.34217Z" fill="white"/>
<path d="M9.05859 8.16517C9.05859 7.99553 8.93438 7.85534 8.77322 7.83315L8.72842 7.83009L2.12487 7.83009C1.94251 7.83009 1.79469 7.98011 1.79469 8.16517C1.79469 8.3348 1.9189 8.475 2.08006 8.49719L2.12487 8.50024L8.72842 8.50024C8.91077 8.50024 9.05859 8.35023 9.05859 8.16517Z" fill="white"/>
</svg>
